<svg width="25" height="24" viewBox="0 0 25 24" fill="none" xmlns="http://www.w3.org/2000/svg">
    <circle cx="12.7747" cy="12" r="11.5" fill="#FAFAFA" stroke="#E0E0E0"/>
    <path d="M16.5301 15.7556C16.856 15.4296 16.856 14.9012 16.5301 14.5753L13.9549 12.0001L16.5302 9.4247C16.8561 9.09878 16.8561 8.57036 16.5302 8.24444C16.2043 7.91852 15.6759 7.91852 15.35 8.24444L12.7747 10.8198L10.1993 8.24444C9.87342 7.91852 9.34501 7.91852 9.01909 8.24444C8.69318 8.57036 8.69318 9.09878 9.01909 9.4247L11.5944 12.0001L9.01922 14.5753C8.69331 14.9012 8.69331 15.4296 9.01922 15.7556C9.34513 16.0815 9.87355 16.0815 10.1995 15.7556L12.7747 13.1803L15.3499 15.7556C15.6758 16.0815 16.2042 16.0815 16.5301 15.7556Z" fill="#6B7F94"/>
</svg>
