<svg width="25" height="24" viewBox="0 0 25 24" fill="none" xmlns="http://www.w3.org/2000/svg">
    <circle cx="12.7747" cy="12" r="11.5" fill="#C6213C" stroke="white"/>
    <path d="M11.7747 11L8.77466 11C8.22237 11 7.77466 11.4477 7.77466 12C7.77466 12.5523 8.22237 13 8.77466 13H11.7747V16C11.7747 16.5523 12.2224 17 12.7747 17C13.3269 17 13.7747 16.5523 13.7747 16V13L16.7747 13C17.3269 13 17.7747 12.5523 17.7747 12C17.7747 11.4477 17.3269 11 16.7747 11L13.7747 11V8C13.7747 7.44772 13.3269 7 12.7747 7C12.2224 7 11.7747 7.44772 11.7747 8V11Z" fill="white"/>
</svg>
